  0
SECTION
  2
HEADER
  9
$ACADVER
  1
AC1009
  9
$INSBASE
 10
0.0
 20
0.0
 30
0.0
  9
$EXTMIN
 10
0.0
 20
0.0
 30
0.0
  9
$EXTMAX
 10
0.0
 20
0.0
 30
0.0
  0
ENDSEC
  0
SECTION
  2
TABLES
  0
TABLE
  2
VPORT
 70
0
  0
ENDTAB
  0
TABLE
  2
LTYPE
 70
1
  0
LTYPE
  2
CONTINUOUS
 70
0
  3
Solid line
 72
65
 73
0
 40
0.0
  0
ENDTAB
  0
TABLE
  2
LAYER
 70
1
  0
LAYER
  2
0
 70
64
 62
7
  6
continuous
  0
ENDTAB
  0
TABLE
  2
STYLE
 70
1
  0
STYLE
  2
STANDARD
 70
0
 40
0
 41
1.0
 50
0.0
 71
0
 42
1
 3
ARIAL.TTF
 4

  0
ENDTAB
  0
TABLE
  2
VIEW
 70
0
  0
ENDTAB
  0
ENDSEC
  0
SECTION
  2
BLOCKS
  0
BLOCK
  8
0
  2
SKETCH
 70
0
 10
0.0
 20
0.0
 30
0.0
  3
SKETCH
  0
POLYLINE
  8
0
 62
7
 70
1
 66
1
 10
0.0
 20
0.0
 30
0.0
  0
VERTEX
  8
0
 10
91.0
 20
78.0
 30
0.0
  0
VERTEX
  8
0
 10
91.0
 20
50.0
 30
0.0
  0
VERTEX
  8
0
 10
131.0
 20
50.0
 30
0.0
  0
VERTEX
  8
0
 10
131.0
 20
78.0
 30
0.0
  0
SEQEND
  8
0
  0
POLYLINE
  8
0
 62
7
 70
1
 66
1
 10
0.0
 20
0.0
 30
0.0
  0
VERTEX
  8
0
 10
251.0
 20
50.0
 30
0.0
  0
VERTEX
  8
0
 10
251.0
 20
77.99999999999997
 30
0.0
  0
VERTEX
  8
0
 10
191.0
 20
77.99999999999997
 30
0.0
  0
VERTEX
  8
0
 10
191.0
 20
50.0
 30
0.0
  0
SEQEND
  8
0
  0
POLYLINE
  8
0
 62
7
 70
1
 66
1
 10
0.0
 20
0.0
 30
0.0
  0
VERTEX
  8
0
 10
272.0
 20
102.99999999999999
 30
0.0
  0
VERTEX
  8
0
 10
272.0
 20
143.0
 30
0.0
  0
VERTEX
  8
0
 10
215.0
 20
143.0
 30
0.0
  0
VERTEX
  8
0
 10
215.0
 20
102.99999999999999
 30
0.0
  0
SEQEND
  8
0
  0
POLYLINE
  8
0
 62
7
 70
1
 66
1
 10
0.0
 20
0.0
 30
0.0
  0
VERTEX
  8
0
 10
195.0
 20
102.99999999999999
 30
0.0
  0
VERTEX
  8
0
 10
195.0
 20
143.00000000004857
 30
0.0
  0
VERTEX
  8
0
 10
138.0
 20
143.00000000004857
 30
0.0
  0
VERTEX
  8
0
 10
138.0
 20
102.99999999999999
 30
0.0
  0
SEQEND
  8
0
  0
POLYLINE
  8
0
 62
7
 70
1
 66
1
 10
0.0
 20
0.0
 30
0.0
  0
VERTEX
  8
0
 10
117.99999999999999
 20
103.0
 30
0.0
  0
VERTEX
  8
0
 10
117.99999999999999
 20
143.0000000000263
 30
0.0
  0
VERTEX
  8
0
 10
60.99999999999999
 20
143.0000000000263
 30
0.0
  0
VERTEX
  8
0
 10
60.99999999999999
 20
103.0
 30
0.0
  0
SEQEND
  8
0
  0
POLYLINE
  8
0
 62
7
 70
1
 66
1
 10
0.0
 20
0.0
 30
0.0
  0
VERTEX
  8
0
 10
270.99999999999994
 20
161.00000000004857
 30
0.0
  0
VERTEX
  8
0
 10
270.99999999999994
 20
186.00000000004857
 30
0.0
  0
VERTEX
  8
0
 10
195.99999999999997
 20
186.00000000004857
 30
0.0
  0
VERTEX
  8
0
 10
195.99999999999997
 20
161.00000000004857
 30
0.0
  0
SEQEND
  8
0
  0
POLYLINE
  8
0
 62
7
 70
1
 66
1
 10
0.0
 20
0.0
 30
0.0
  0
VERTEX
  8
0
 10
120.99999999999996
 20
186.00000000004854
 30
0.0
  0
VERTEX
  8
0
 10
120.99999999999996
 20
161.00000000004857
 30
0.0
  0
VERTEX
  8
0
 10
160.99999999999997
 20
161.00000000004857
 30
0.0
  0
VERTEX
  8
0
 10
160.99999999999997
 20
186.00000000004854
 30
0.0
  0
SEQEND
  8
0
  0
POLYLINE
  8
0
 62
7
 70
1
 66
1
 10
0.0
 20
0.0
 30
0.0
  0
VERTEX
  8
0
 10
55.99999999999999
 20
186.00000000002623
 30
0.0
  0
VERTEX
  8
0
 10
55.99999999999999
 20
161.0000000000263
 30
0.0
  0
VERTEX
  8
0
 10
95.99999999999999
 20
161.0000000000263
 30
0.0
  0
VERTEX
  8
0
 10
95.99999999999999
 20
186.00000000002623
 30
0.0
  0
SEQEND
  8
0
  0
POLYLINE
  8
0
 62
7
 70
1
 66
1
 10
0.0
 20
0.0
 30
0.0
  0
VERTEX
  8
0
 10
6.0
 20
226.0
 30
0.0
  0
VERTEX
  8
0
 10
6.0
 20
6.0
 30
0.0
  0
VERTEX
  8
0
 10
319.0
 20
6.0
 30
0.0
  0
VERTEX
  8
0
 10
319.0
 20
226.0
 30
0.0
  0
SEQEND
  8
0
  0
POLYLINE
  8
0
 62
7
 70
1
 66
1
 10
0.0
 20
0.0
 30
0.0
  0
VERTEX
  8
0
 10
325.0
 20
0.0
 30
0.0
  0
VERTEX
  8
0
 10
325.0
 20
232.0
 30
0.0
  0
VERTEX
  8
0
 10
0.0
 20
232.0
 30
0.0
  0
VERTEX
  8
0
 10
0.0
 20
0.0
 30
0.0
  0
SEQEND
  8
0
  0
CIRCLE
  8
0
 62
7
 10
279.535034
 20
135.820099
 30
0.0
 40
3.5
  0
CIRCLE
  8
0
 62
7
 10
280.264801
 20
113.08123
 30
0.0
 40
3.5
  0
CIRCLE
  8
0
 62
7
 10
204.646408
 20
134.455063
 30
0.0
 40
3.5
  0
CIRCLE
  8
0
 62
7
 10
205.126541
 20
112.949409
 30
0.0
 40
3.5
  0
CIRCLE
  8
0
 62
7
 10
128.311569
 20
134.797211
 30
0.0
 40
3.5
  0
CIRCLE
  8
0
 62
7
 10
128.052017
 20
111.670067
 30
0.0
 40
3.5
  0
ENDBLK
  0
ENDSEC
  0
SECTION
  2
ENTITIES
  0
INSERT
  2
SKETCH
  8
0
 62
7
 10
0.0
 20
0.0
 30
0.0
  0
ENDSEC
  0
EOF
